<svg id="Layer_1" data-name="Layer 1" xmlns="http://www.w3.org/2000/svg" xmlns:xlink="http://www.w3.org/1999/xlink" viewBox="0 0 60 60"><defs><style>.cls-1{fill:none;}.cls-2{clip-path:url(#clip-path);}.cls-3{fill:#ffedd5;}.cls-4{fill:#663852;}.cls-5{fill:#ffcdac;}</style><clipPath id="clip-path"><circle class="cls-1" cx="30" cy="30" r="30"/></clipPath></defs><title>Artboard 1 copy 13</title><g class="cls-2"><rect class="cls-3" width="60" height="60"/><path class="cls-4" d="M60,60V40A20.06,20.06,0,0,0,40,20H20A20.06,20.06,0,0,0,0,40V60Z"/><circle class="cls-5" cx="30" cy="19" r="14"/><path class="cls-3" d="M44.4,36.62l.73,1.48a.74.74,0,0,0,.57.41l2.11.31a.76.76,0,0,1,.42,1.29L46.7,41.6a.78.78,0,0,0-.22.68l.36,2.1a.76.76,0,0,1-1.1.8l-1.89-1a.73.73,0,0,0-.7,0l-1.89,1a.76.76,0,0,1-1.1-.8l.36-2.1a.78.78,0,0,0-.22-.68l-1.53-1.49a.76.76,0,0,1,.42-1.29l2.11-.31a.74.74,0,0,0,.57-.41l.73-1.48C43.1,35.62,43.9,35.62,44.4,36.62Z"/><path class="cls-4" d="M30.47,29.27a6,6,0,0,1-6-6,1,1,0,1,1,2,0,4,4,0,0,0,8,0,1,1,0,1,1,2,0A6,6,0,0,1,30.47,29.27Z"/><rect class="cls-5" x="15" y="40" width="12" height="4" rx="2" ry="2"/><rect class="cls-5" x="14" y="43" width="12" height="4" rx="2" ry="2"/><rect class="cls-5" x="13" y="46" width="12" height="4" rx="2" ry="2"/><rect class="cls-5" x="12" y="49" width="12" height="4" rx="2" ry="2"/><rect class="cls-5" x="12" y="40" width="11" height="13" rx="2" ry="2"/><path class="cls-5" d="M15,42c2-2-1-7-3-6s0,1,0,6"/><path class="cls-4" d="M30,5A14,14,0,0,0,16,19c14,0,14-9.33,14-9.33C30,19,44,19,44,19A14,14,0,0,0,30,5Z"/></g></svg>